<svg width="14" height="10" viewBox="0 0 14 10" fill="none" xmlns="http://www.w3.org/2000/svg">
<path d="M4.86396 7.5832L2.55063 5.26987C2.42607 5.14503 2.08063 4.79987 2.08063 4.79987L1.14063 5.73987C1.14063 5.73987 1.35063 5.94987 1.61063 6.20987C1.61063 6.20987 3.77903 8.37827 4.86729 9.46654L5.33729 8.99654L12.3906 1.9432L12.8606 1.4732L11.9206 0.533203C11.9206 0.533203 11.5752 0.878368 11.4506 1.0032L4.86396 7.5832Z" fill="#101001"/>
<path d="M2.55063 5.26987L4.86396 7.5832L11.4506 1.0032M2.55063 5.26987C2.42607 5.14503 2.08063 4.79987 2.08063 4.79987M2.55063 5.26987L2.08063 4.79987M2.08063 4.79987L1.14063 5.73987M1.14063 5.73987C1.14063 5.73987 1.35063 5.94987 1.61063 6.20987M1.14063 5.73987L1.61063 6.20987M1.61063 6.20987C1.61063 6.20987 3.77903 8.37827 4.86729 9.46654L5.33729 8.99654L12.3906 1.9432L12.8606 1.4732L11.9206 0.533203M11.9206 0.533203C11.9206 0.533203 11.5752 0.878368 11.4506 1.0032M11.9206 0.533203L11.4506 1.0032" stroke="black" stroke-width="0.25"/>
</svg>
