<svg width="22" height="22" viewBox="0 0 22 22" fill="none" xmlns="http://www.w3.org/2000/svg">
<path d="M15.1265 3.55789L15.1265 3.55789C15.495 3.6974 15.6807 4.10921 15.5412 4.47775M15.1265 3.55789L15.4243 4.4335M15.1265 3.55789L13.6881 3.01341C13.4546 2.56134 13.1995 2.17419 12.9238 1.85862L12.9238 1.85861M15.1265 3.55789L12.9238 1.85861M15.5412 4.47775L15.4243 4.4335M15.5412 4.47775C15.5412 4.47775 15.5412 4.47774 15.5412 4.47774L15.4243 4.4335M15.5412 4.47775C15.4331 4.7633 15.1617 4.93877 14.8738 4.93877C14.7896 4.93877 14.7043 4.92379 14.6213 4.89239L14.3999 4.80858M15.4243 4.4335C15.3352 4.66885 15.1114 4.81377 14.8738 4.81377C14.8046 4.81377 14.7342 4.80146 14.6656 4.77548L14.3527 4.65706C14.3686 4.70722 14.3843 4.75772 14.3999 4.80858M14.3999 4.80858C14.9346 6.56038 15.2243 8.7255 15.2243 11C15.2243 11.8358 15.1851 12.6566 15.1092 13.4474M14.3999 4.80858L15.1092 13.4474M15.1092 13.4474C15.9514 13.29 16.7267 13.0833 17.4077 12.8317C18.1428 12.56 18.7224 12.2502 19.1157 11.934C19.5134 11.6142 19.6981 11.3067 19.6981 11.0415C19.6981 10.7311 19.4377 10.363 18.8953 9.99039C18.3616 9.62378 17.5878 9.27627 16.6394 8.9986C16.2612 8.88787 16.0444 8.49156 16.1552 8.1134M15.1092 13.4474L4.09771 7.91295C3.15715 8.2605 2.40195 8.67569 1.85862 9.15042L1.85861 9.15042C1.42016 9.53357 0.875 10.1813 0.875 11.0415C0.875 11.9018 1.42016 12.5495 1.85862 12.9326L1.94086 12.8385L1.85862 12.9326C2.40195 13.4074 3.15715 13.8226 4.09771 14.1701C5.41766 14.658 7.03591 14.9887 8.79009 15.1396L8.67307 15.251L8.67306 15.251C8.38763 15.5227 8.37645 15.9743 8.6481 16.2597C8.78831 16.4071 8.97675 16.4813 9.16502 16.4813C9.34155 16.4813 9.51876 16.4161 9.65682 16.2847L10.7631 15.2319C10.8418 15.2326 10.9207 15.2331 11 15.2331C11.832 15.2331 12.6492 15.1944 13.4367 15.1191C13.2795 15.9575 13.0735 16.7293 12.8228 17.4076C12.5511 18.1428 12.2414 18.7224 11.9251 19.1157C11.6054 19.5134 11.2979 19.698 11.0327 19.698C10.8141 19.698 10.5617 19.5695 10.2935 19.2884C10.0272 19.0095 9.75922 18.5943 9.51092 18.0574L9.51091 18.0574C9.34546 17.6998 8.92139 17.5438 8.5638 17.7094C8.20619 17.8749 8.05038 18.2989 8.21581 18.6565C8.67982 19.6597 9.18524 20.2775 9.67673 20.6448C10.1698 21.0132 10.6432 21.125 11.0327 21.125C11.8929 21.125 12.5407 20.5798 12.9238 20.1414L12.8297 20.0591L12.9238 20.1414C13.3985 19.5981 13.8137 18.8429 14.1613 17.9023C14.4851 17.0263 14.7393 16.0189 14.9179 14.9286C16.0124 14.7498 17.0234 14.495 17.9023 14.1702C18.8429 13.8227 19.598 13.4074 20.1414 12.9327C20.5798 12.5496 21.125 11.9019 21.125 11.0416C21.125 10.3089 20.744 9.6419 20.0482 9.06837C19.3536 8.49593 18.3373 8.00888 17.0404 7.62914C16.6624 7.51846 16.2659 7.73515 16.1552 8.1134M16.1552 8.1134L16.2751 8.14853L16.1552 8.11341C16.1552 8.1134 16.1552 8.1134 16.1552 8.1134ZM12.9238 1.85861C12.5407 1.42016 11.893 0.875 11.0327 0.875C10.1725 0.875 9.52477 1.42016 9.14163 1.85861L9.14162 1.85861M12.9238 1.85861L9.14162 1.85861M9.14162 1.85861C8.66689 2.40195 8.2517 3.15714 7.90411 4.09769L8.02136 4.14103M9.14162 1.85861L8.02136 4.14103M8.02136 4.14103L7.90411 4.0977C7.573 4.9937 7.3145 6.02682 7.13527 7.14586M8.02136 4.14103L7.13527 7.14586M8.27201 11.4402C8.26947 11.2935 8.26814 11.1454 8.26814 11C8.26814 10.1102 8.31463 9.24151 8.40421 8.41414C9.23458 8.32384 10.1067 8.27694 11 8.27694C11.4067 8.27694 11.578 8.28221 11.96 8.30042L11.9606 8.30044C12.3532 8.31724 12.6878 8.01581 12.7066 7.62168L12.7066 7.62166C12.7254 7.22806 12.4215 6.89378 12.0279 6.87504L12.0219 6.99989L12.0279 6.87504C11.6271 6.85597 11.4322 6.84998 11 6.84998C10.1857 6.84998 9.38574 6.88725 8.61389 6.95938C8.77279 6.09065 8.98404 5.2919 9.24257 4.59233C9.51427 3.85719 9.82404 3.2776 10.1403 2.88434C10.4601 2.48665 10.7676 2.30196 11.0327 2.30196C11.2342 2.30196 11.4608 2.40813 11.7017 2.63873C11.932 2.85924 12.1648 3.18399 12.387 3.60365L11.8017 4.96362L11.8017 4.96363C11.646 5.32553 11.8131 5.7453 12.1751 5.90104L12.2245 5.78622L12.1751 5.90104C12.2668 5.94051 12.3624 5.95931 12.4568 5.95931C12.7329 5.95931 12.9962 5.79795 13.1125 5.52773L13.1194 5.51166C13.5584 7.07238 13.7973 8.98125 13.7973 11C13.7973 11.9174 13.7478 12.8123 13.6527 13.6626C12.8053 13.757 11.9138 13.8061 11 13.8061C10.937 13.8061 10.874 13.8058 10.8111 13.8054L9.83109 12.6791C9.83109 12.6791 9.83109 12.6791 9.83108 12.6791C9.57244 12.3819 9.12168 12.3505 8.8245 12.6093C8.52727 12.8679 8.49596 13.3186 8.75463 13.6158L8.83809 13.7117C7.23543 13.5691 5.77319 13.268 4.59242 12.8317L4.54909 12.9489L4.59242 12.8317C3.85721 12.56 3.2776 12.2502 2.88434 11.934C2.48665 11.6142 2.30196 11.3067 2.30196 11.0415C2.30196 10.7764 2.48665 10.4689 2.88434 10.1491C3.27759 9.83287 3.8572 9.52312 4.59238 9.25144C5.28933 8.9939 6.08464 8.78329 6.94959 8.62457C6.87811 9.39313 6.84118 10.1894 6.84118 11C6.84118 11.1537 6.84252 11.3101 6.84524 11.465C6.85204 11.8547 7.17005 12.166 7.55839 12.166L7.5703 12.166L7.57105 12.1659C7.96501 12.159 8.27885 11.8341 8.27201 11.4402ZM8.27201 11.4402L8.14702 11.4423M8.27201 11.4402C8.27201 11.4402 8.27201 11.4402 8.27201 11.4401L8.14702 11.4423M8.14702 11.4423C8.14447 11.295 8.14314 11.1462 8.14314 11C8.14314 10.0701 8.19367 9.16283 8.29097 8.30094M8.14702 11.4423L8.29097 8.30094M8.29097 8.30094C9.15584 8.2029 10.0666 8.15194 11 8.15194C11.4089 8.15194 11.5823 8.15728 11.966 8.17556L8.29097 8.30094ZM7.13527 7.14586C6.02032 7.32498 4.99086 7.58287 4.09771 7.91295L7.13527 7.14586Z" fill="#101010" stroke="#101010" stroke-width="0.25"/>
</svg>
