<svg width="4" height="12" viewBox="0 0 4 12" fill="none" xmlns="http://www.w3.org/2000/svg">
<path d="M2 12C1.17157 12 0.5 11.3284 0.5 10.5C0.5 9.67157 1.17157 9 2 9C2.82843 9 3.5 9.67157 3.5 10.5C3.5 11.3284 2.82843 12 2 12ZM2 7.5C1.17157 7.5 0.5 6.82843 0.5 6C0.5 5.17157 1.17157 4.5 2 4.5C2.82843 4.5 3.5 5.17157 3.5 6C3.5 6.39782 3.34196 6.77936 3.06066 7.06066C2.77936 7.34196 2.39782 7.5 2 7.5ZM2 3C1.17157 3 0.5 2.32843 0.5 1.5C0.5 0.671573 1.17157 0 2 0C2.82843 0 3.5 0.671573 3.5 1.5C3.5 1.89782 3.34196 2.27936 3.06066 2.56066C2.77936 2.84196 2.39782 3 2 3Z" fill="#101010"/>
</svg>
